<svg version="1.1" xmlns="http://www.w3.org/2000/svg" viewBox="0 0 820 1220" width="820" height="1220">
  <!-- svg-source:excalidraw -->
  
  <defs>
    <style class="style-fonts">
      @font-face {
        font-family: "Virgil";
        src: url("https://excalidraw.com/Virgil.woff2");
      }
      @font-face {
        font-family: "Cascadia";
        src: url("https://excalidraw.com/Cascadia.woff2");
      }
      @font-face {
        font-family: "Assistant";
        src: url("https://excalidraw.com/Assistant-Regular.woff2");
      }
    </style>
    
  </defs>
  <rect x="0" y="0" width="820" height="1220" fill="#ffffff"></rect><g stroke-linecap="round" transform="translate(10 10) rotate(0 100 50)"><path d="M25 0 C64.81 0, 104.62 0, 175 0 M25 0 C77.14 0, 129.28 0, 175 0 M175 0 C191.67 0, 200 8.33, 200 25 M175 0 C191.67 0, 200 8.33, 200 25 M200 25 C200 35.19, 200 45.38, 200 75 M200 25 C200 43.2, 200 61.41, 200 75 M200 75 C200 91.67, 191.67 100, 175 100 M200 75 C200 91.67, 191.67 100, 175 100 M175 100 C138.14 100, 101.28 100, 25 100 M175 100 C141.11 100, 107.22 100, 25 100 M25 100 C8.33 100, 0 91.67, 0 75 M25 100 C8.33 100, 0 91.67, 0 75 M0 75 C0 61.14, 0 47.27, 0 25 M0 75 C0 60.38, 0 45.77, 0 25 M0 25 C0 8.33, 8.33 0, 25 0 M0 25 C0 8.33, 8.33 0, 25 0" stroke="#f08c00" stroke-width="2" fill="none"></path></g><g transform="translate(60.099998474121094 47.5) rotate(0 49.900001525878906 12.5)"><text x="49.900001525878906" y="0" font-family="Virgil, Segoe UI Emoji" font-size="20px" fill="#f08c00" text-anchor="middle" style="white-space: pre;" direction="ltr" dominant-baseline="text-before-edge">FINANCES</text></g><g stroke-linecap="round"><g transform="translate(110 110) rotate(0 50 520)"><path d="M0 0 C0 214.33, 0 428.67, 0 1040 M0 0 C0 331.91, 0 663.82, 0 1040 M0 1040 C21.25 1040, 42.51 1040, 100 1040 M0 1040 C28.87 1040, 57.74 1040, 100 1040" stroke="#f08c00" stroke-width="2" fill="none"></path></g><g transform="translate(110 110) rotate(0 50 520)"><path d="M71.81 1050.26 C77.62 1048.15, 83.43 1046.03, 100 1040 M71.81 1050.26 C80.81 1046.99, 89.8 1043.71, 100 1040" stroke="#f08c00" stroke-width="2" fill="none"></path></g><g transform="translate(110 110) rotate(0 50 520)"><path d="M71.81 1029.74 C77.62 1031.85, 83.43 1033.97, 100 1040 M71.81 1029.74 C80.81 1033.01, 89.8 1036.29, 100 1040" stroke="#f08c00" stroke-width="2" fill="none"></path></g></g><mask></mask><g stroke-linecap="round" transform="translate(210 710) rotate(0 100 50)"><path d="M25 0 C59.71 0, 94.41 0, 175 0 M25 0 C61.79 0, 98.58 0, 175 0 M175 0 C191.67 0, 200 8.33, 200 25 M175 0 C191.67 0, 200 8.33, 200 25 M200 25 C200 37.11, 200 49.21, 200 75 M200 25 C200 37.18, 200 49.37, 200 75 M200 75 C200 91.67, 191.67 100, 175 100 M200 75 C200 91.67, 191.67 100, 175 100 M175 100 C141.77 100, 108.53 100, 25 100 M175 100 C121.29 100, 67.57 100, 25 100 M25 100 C8.33 100, 0 91.67, 0 75 M25 100 C8.33 100, 0 91.67, 0 75 M0 75 C0 57.62, 0 40.25, 0 25 M0 75 C0 57.98, 0 40.96, 0 25 M0 25 C0 8.33, 8.33 0, 25 0 M0 25 C0 8.33, 8.33 0, 25 0" stroke="#1971c2" stroke-width="2" fill="none"></path></g><g transform="translate(226.51667022705078 722.5) rotate(0 83.48332977294922 37.5)"><text x="83.48332977294922" y="0" font-family="Virgil, Segoe UI Emoji" font-size="20px" fill="#1971c2" text-anchor="middle" style="white-space: pre;" direction="ltr" dominant-baseline="text-before-edge">[06] STUDENT </text><text x="83.48332977294922" y="25" font-family="Virgil, Segoe UI Emoji" font-size="20px" fill="#1971c2" text-anchor="middle" style="white-space: pre;" direction="ltr" dominant-baseline="text-before-edge">FINANCE </text><text x="83.48332977294922" y="50" font-family="Virgil, Segoe UI Emoji" font-size="20px" fill="#1971c2" text-anchor="middle" style="white-space: pre;" direction="ltr" dominant-baseline="text-before-edge">ENGLAND</text></g><g stroke-linecap="round"><g transform="translate(110 150) rotate(0 50 0)"><path d="M0 0 C16.67 0, 83.33 0, 100 0 M0 0 C16.67 0, 83.33 0, 100 0" stroke="#f08c00" stroke-width="2" fill="none"></path></g><g transform="translate(110 150) rotate(0 50 0)"><path d="M71.81 10.26 C79.6 7.42, 87.39 4.59, 100 0 M71.81 10.26 C79.37 7.51, 86.92 4.76, 100 0" stroke="#f08c00" stroke-width="2" fill="none"></path></g><g transform="translate(110 150) rotate(0 50 0)"><path d="M71.81 -10.26 C79.6 -7.42, 87.39 -4.59, 100 0 M71.81 -10.26 C79.37 -7.51, 86.92 -4.76, 100 0" stroke="#f08c00" stroke-width="2" fill="none"></path></g></g><mask></mask><g stroke-linecap="round"><g transform="translate(110 250) rotate(0 50 0)"><path d="M0 0 C16.67 0, 83.33 0, 100 0 M0 0 C16.67 0, 83.33 0, 100 0" stroke="#f08c00" stroke-width="2" fill="none"></path></g><g transform="translate(110 250) rotate(0 50 0)"><path d="M71.81 10.26 C77.97 8.02, 84.12 5.78, 100 0 M71.81 10.26 C77.71 8.11, 83.62 5.96, 100 0" stroke="#f08c00" stroke-width="2" fill="none"></path></g><g transform="translate(110 250) rotate(0 50 0)"><path d="M71.81 -10.26 C77.97 -8.02, 84.12 -5.78, 100 0 M71.81 -10.26 C77.71 -8.11, 83.62 -5.96, 100 0" stroke="#f08c00" stroke-width="2" fill="none"></path></g></g><mask></mask><g stroke-linecap="round"><g transform="translate(110 350) rotate(0 50 0)"><path d="M0 0 C16.67 0, 83.33 0, 100 0 M0 0 C16.67 0, 83.33 0, 100 0" stroke="#f08c00" stroke-width="2" fill="none"></path></g><g transform="translate(110 350) rotate(0 50 0)"><path d="M71.81 10.26 C78.06 7.99, 84.3 5.71, 100 0 M71.81 10.26 C81.9 6.59, 92 2.91, 100 0" stroke="#f08c00" stroke-width="2" fill="none"></path></g><g transform="translate(110 350) rotate(0 50 0)"><path d="M71.81 -10.26 C78.06 -7.99, 84.3 -5.71, 100 0 M71.81 -10.26 C81.9 -6.59, 92 -2.91, 100 0" stroke="#f08c00" stroke-width="2" fill="none"></path></g></g><mask></mask><g stroke-linecap="round"><g transform="translate(110 450) rotate(0 50 0)"><path d="M0 0 C16.67 0, 83.33 0, 100 0 M0 0 C16.67 0, 83.33 0, 100 0" stroke="#f08c00" stroke-width="2" fill="none"></path></g><g transform="translate(110 450) rotate(0 50 0)"><path d="M71.81 10.26 C79.49 7.47, 87.16 4.67, 100 0 M71.81 10.26 C78.73 7.74, 85.64 5.23, 100 0" stroke="#f08c00" stroke-width="2" fill="none"></path></g><g transform="translate(110 450) rotate(0 50 0)"><path d="M71.81 -10.26 C79.49 -7.47, 87.16 -4.67, 100 0 M71.81 -10.26 C78.73 -7.74, 85.64 -5.23, 100 0" stroke="#f08c00" stroke-width="2" fill="none"></path></g></g><mask></mask><g stroke-linecap="round"><g transform="translate(110 550) rotate(0 50 0)"><path d="M0 0 C16.67 0, 83.33 0, 100 0 M0 0 C16.67 0, 83.33 0, 100 0" stroke="#f08c00" stroke-width="2" fill="none"></path></g><g transform="translate(110 550) rotate(0 50 0)"><path d="M71.81 10.26 C78.78 7.72, 85.75 5.19, 100 0 M71.81 10.26 C81.51 6.73, 91.21 3.2, 100 0" stroke="#f08c00" stroke-width="2" fill="none"></path></g><g transform="translate(110 550) rotate(0 50 0)"><path d="M71.81 -10.26 C78.78 -7.72, 85.75 -5.19, 100 0 M71.81 -10.26 C81.51 -6.73, 91.21 -3.2, 100 0" stroke="#f08c00" stroke-width="2" fill="none"></path></g></g><mask></mask><g stroke-linecap="round" transform="translate(210 110) rotate(0 100 50)"><path d="M25 0 C70.83 0, 116.66 0, 175 0 M25 0 C55.15 0, 85.3 0, 175 0 M175 0 C191.67 0, 200 8.33, 200 25 M175 0 C191.67 0, 200 8.33, 200 25 M200 25 C200 41.06, 200 57.12, 200 75 M200 25 C200 44.63, 200 64.26, 200 75 M200 75 C200 91.67, 191.67 100, 175 100 M200 75 C200 91.67, 191.67 100, 175 100 M175 100 C127.48 100, 79.96 100, 25 100 M175 100 C125.79 100, 76.58 100, 25 100 M25 100 C8.33 100, 0 91.67, 0 75 M25 100 C8.33 100, 0 91.67, 0 75 M0 75 C0 63.57, 0 52.13, 0 25 M0 75 C0 59.17, 0 43.35, 0 25 M0 25 C0 8.33, 8.33 0, 25 0 M0 25 C0 8.33, 8.33 0, 25 0" stroke="#1971c2" stroke-width="2" fill="none"></path></g><g transform="translate(231.44166564941406 135) rotate(0 78.55833435058594 25)"><text x="78.55833435058594" y="0" font-family="Virgil, Segoe UI Emoji" font-size="20px" fill="#1971c2" text-anchor="middle" style="white-space: pre;" direction="ltr" dominant-baseline="text-before-edge">[00] BUDGET </text><text x="78.55833435058594" y="25" font-family="Virgil, Segoe UI Emoji" font-size="20px" fill="#1971c2" text-anchor="middle" style="white-space: pre;" direction="ltr" dominant-baseline="text-before-edge">AND PLANNING</text></g><g stroke-linecap="round" transform="translate(210 210) rotate(0 100 50)"><path d="M25 0 C60.61 0, 96.22 0, 175 0 M25 0 C78.47 0, 131.94 0, 175 0 M175 0 C191.67 0, 200 8.33, 200 25 M175 0 C191.67 0, 200 8.33, 200 25 M200 25 C200 37.34, 200 49.67, 200 75 M200 25 C200 40.75, 200 56.5, 200 75 M200 75 C200 91.67, 191.67 100, 175 100 M200 75 C200 91.67, 191.67 100, 175 100 M175 100 C143.01 100, 111.03 100, 25 100 M175 100 C143.69 100, 112.37 100, 25 100 M25 100 C8.33 100, 0 91.67, 0 75 M25 100 C8.33 100, 0 91.67, 0 75 M0 75 C0 63.16, 0 51.33, 0 25 M0 75 C0 59.11, 0 43.22, 0 25 M0 25 C0 8.33, 8.33 0, 25 0 M0 25 C0 8.33, 8.33 0, 25 0" stroke="#1971c2" stroke-width="2" fill="none"></path></g><g transform="translate(234.65833282470703 247.5) rotate(0 75.34166717529297 12.5)"><text x="75.34166717529297" y="0" font-family="Virgil, Segoe UI Emoji" font-size="20px" fill="#1971c2" text-anchor="middle" style="white-space: pre;" direction="ltr" dominant-baseline="text-before-edge">[01] BARCLAYS</text></g><g stroke-linecap="round" transform="translate(210 310) rotate(0 100 50)"><path d="M25 0 C58.95 0, 92.9 0, 175 0 M25 0 C62.01 0, 99.01 0, 175 0 M175 0 C191.67 0, 200 8.33, 200 25 M175 0 C191.67 0, 200 8.33, 200 25 M200 25 C200 36.12, 200 47.24, 200 75 M200 25 C200 35.66, 200 46.32, 200 75 M200 75 C200 91.67, 191.67 100, 175 100 M200 75 C200 91.67, 191.67 100, 175 100 M175 100 C130.79 100, 86.58 100, 25 100 M175 100 C139.49 100, 103.98 100, 25 100 M25 100 C8.33 100, 0 91.67, 0 75 M25 100 C8.33 100, 0 91.67, 0 75 M0 75 C0 60.71, 0 46.41, 0 25 M0 75 C0 64, 0 53, 0 25 M0 25 C0 8.33, 8.33 0, 25 0 M0 25 C0 8.33, 8.33 0, 25 0" stroke="#1971c2" stroke-width="2" fill="none"></path></g><g transform="translate(218.15833282470703 347.5) rotate(0 91.84166717529297 12.5)"><text x="91.84166717529297" y="0" font-family="Virgil, Segoe UI Emoji" font-size="20px" fill="#1971c2" text-anchor="middle" style="white-space: pre;" direction="ltr" dominant-baseline="text-before-edge">[02] ALLAN GRAY</text></g><g stroke-linecap="round" transform="translate(210 410) rotate(0 100 50)"><path d="M25 0 C76.12 0, 127.24 0, 175 0 M25 0 C72.52 0, 120.04 0, 175 0 M175 0 C191.67 0, 200 8.33, 200 25 M175 0 C191.67 0, 200 8.33, 200 25 M200 25 C200 35.03, 200 45.06, 200 75 M200 25 C200 36.43, 200 47.87, 200 75 M200 75 C200 91.67, 191.67 100, 175 100 M200 75 C200 91.67, 191.67 100, 175 100 M175 100 C118.21 100, 61.41 100, 25 100 M175 100 C124.02 100, 73.03 100, 25 100 M25 100 C8.33 100, 0 91.67, 0 75 M25 100 C8.33 100, 0 91.67, 0 75 M0 75 C0 58.77, 0 42.55, 0 25 M0 75 C0 55.98, 0 36.96, 0 25 M0 25 C0 8.33, 8.33 0, 25 0 M0 25 C0 8.33, 8.33 0, 25 0" stroke="#1971c2" stroke-width="2" fill="none"></path></g><g transform="translate(216.70833587646484 435) rotate(0 93.29166412353516 25)"><text x="93.29166412353516" y="0" font-family="Virgil, Segoe UI Emoji" font-size="20px" fill="#1971c2" text-anchor="middle" style="white-space: pre;" direction="ltr" dominant-baseline="text-before-edge">[03] INVEST </text><text x="93.29166412353516" y="25" font-family="Virgil, Segoe UI Emoji" font-size="20px" fill="#1971c2" text-anchor="middle" style="white-space: pre;" direction="ltr" dominant-baseline="text-before-edge">ENGINE - SHARED</text></g><g stroke-linecap="round" transform="translate(210 510) rotate(0 100 50)"><path d="M25 0 C64.22 0, 103.44 0, 175 0 M25 0 C55.09 0, 85.18 0, 175 0 M175 0 C191.67 0, 200 8.33, 200 25 M175 0 C191.67 0, 200 8.33, 200 25 M200 25 C200 38.98, 200 52.96, 200 75 M200 25 C200 43.93, 200 62.86, 200 75 M200 75 C200 91.67, 191.67 100, 175 100 M200 75 C200 91.67, 191.67 100, 175 100 M175 100 C139.27 100, 103.55 100, 25 100 M175 100 C126.32 100, 77.64 100, 25 100 M25 100 C8.33 100, 0 91.67, 0 75 M25 100 C8.33 100, 0 91.67, 0 75 M0 75 C0 63.52, 0 52.05, 0 25 M0 75 C0 60.44, 0 45.88, 0 25 M0 25 C0 8.33, 8.33 0, 25 0 M0 25 C0 8.33, 8.33 0, 25 0" stroke="#1971c2" stroke-width="2" fill="none"></path></g><g transform="translate(227.46666717529297 547.5) rotate(0 82.53333282470703 12.5)"><text x="82.53333282470703" y="0" font-family="Virgil, Segoe UI Emoji" font-size="20px" fill="#1971c2" text-anchor="middle" style="white-space: pre;" direction="ltr" dominant-baseline="text-before-edge">[04] VANGUARD</text></g><g stroke-linecap="round" transform="translate(210 610) rotate(0 100 50)"><path d="M25 0 C68.52 0, 112.04 0, 175 0 M25 0 C62.25 0, 99.51 0, 175 0 M175 0 C191.67 0, 200 8.33, 200 25 M175 0 C191.67 0, 200 8.33, 200 25 M200 25 C200 38.41, 200 51.82, 200 75 M200 25 C200 39, 200 53, 200 75 M200 75 C200 91.67, 191.67 100, 175 100 M200 75 C200 91.67, 191.67 100, 175 100 M175 100 C121.01 100, 67.01 100, 25 100 M175 100 C143.4 100, 111.8 100, 25 100 M25 100 C8.33 100, 0 91.67, 0 75 M25 100 C8.33 100, 0 91.67, 0 75 M0 75 C0 61.89, 0 48.79, 0 25 M0 75 C0 56.33, 0 37.65, 0 25 M0 25 C0 8.33, 8.33 0, 25 0 M0 25 C0 8.33, 8.33 0, 25 0" stroke="#1971c2" stroke-width="2" fill="none"></path></g><g transform="translate(220.95833587646484 635) rotate(0 89.04166412353516 25)"><text x="89.04166412353516" y="0" font-family="Virgil, Segoe UI Emoji" font-size="20px" fill="#1971c2" text-anchor="middle" style="white-space: pre;" direction="ltr" dominant-baseline="text-before-edge">[05] STANDARD </text><text x="89.04166412353516" y="25" font-family="Virgil, Segoe UI Emoji" font-size="20px" fill="#1971c2" text-anchor="middle" style="white-space: pre;" direction="ltr" dominant-baseline="text-before-edge">LIFE</text></g><g stroke-linecap="round" transform="translate(210 910) rotate(0 100 50)"><path d="M25 0 C84.57 0, 144.13 0, 175 0 M25 0 C62.43 0, 99.87 0, 175 0 M175 0 C191.67 0, 200 8.33, 200 25 M175 0 C191.67 0, 200 8.33, 200 25 M200 25 C200 42.45, 200 59.9, 200 75 M200 25 C200 35.02, 200 45.05, 200 75 M200 75 C200 91.67, 191.67 100, 175 100 M200 75 C200 91.67, 191.67 100, 175 100 M175 100 C121.36 100, 67.72 100, 25 100 M175 100 C123 100, 71 100, 25 100 M25 100 C8.33 100, 0 91.67, 0 75 M25 100 C8.33 100, 0 91.67, 0 75 M0 75 C0 58.56, 0 42.12, 0 25 M0 75 C0 61.91, 0 48.82, 0 25 M0 25 C0 8.33, 8.33 0, 25 0 M0 25 C0 8.33, 8.33 0, 25 0" stroke="#1971c2" stroke-width="2" fill="none"></path></g><g transform="translate(217.25833129882812 935) rotate(0 92.74166870117188 25)"><text x="92.74166870117188" y="0" font-family="Virgil, Segoe UI Emoji" font-size="20px" fill="#1971c2" text-anchor="middle" style="white-space: pre;" direction="ltr" dominant-baseline="text-before-edge">LESS IMPORTANT</text><text x="92.74166870117188" y="25" font-family="Virgil, Segoe UI Emoji" font-size="20px" fill="#1971c2" text-anchor="middle" style="white-space: pre;" direction="ltr" dominant-baseline="text-before-edge">FOLDER</text></g><g stroke-linecap="round" transform="translate(210 1010) rotate(0 100 50)"><path d="M25 0 C69.79 0, 114.57 0, 175 0 M25 0 C74.24 0, 123.47 0, 175 0 M175 0 C191.67 0, 200 8.33, 200 25 M175 0 C191.67 0, 200 8.33, 200 25 M200 25 C200 41.23, 200 57.47, 200 75 M200 25 C200 43.07, 200 61.14, 200 75 M200 75 C200 91.67, 191.67 100, 175 100 M200 75 C200 91.67, 191.67 100, 175 100 M175 100 C119.73 100, 64.47 100, 25 100 M175 100 C125.92 100, 76.84 100, 25 100 M25 100 C8.33 100, 0 91.67, 0 75 M25 100 C8.33 100, 0 91.67, 0 75 M0 75 C0 57.42, 0 39.85, 0 25 M0 75 C0 58.31, 0 41.62, 0 25 M0 25 C0 8.33, 8.33 0, 25 0 M0 25 C0 8.33, 8.33 0, 25 0" stroke="#1e1e1e" stroke-width="2" fill="none"></path></g><g transform="translate(235.6500015258789 1035) rotate(0 74.3499984741211 25)"><text x="74.3499984741211" y="0" font-family="Virgil, Segoe UI Emoji" font-size="20px" fill="#1e1e1e" text-anchor="middle" style="white-space: pre;" direction="ltr" dominant-baseline="text-before-edge">FILE 1 - </text><text x="74.3499984741211" y="25" font-family="Virgil, Segoe UI Emoji" font-size="20px" fill="#1e1e1e" text-anchor="middle" style="white-space: pre;" direction="ltr" dominant-baseline="text-before-edge">ELABORATION</text></g><g stroke-linecap="round" transform="translate(210 1110) rotate(0 100 50)"><path d="M25 0 C64.86 0, 104.72 0, 175 0 M25 0 C61.96 0, 98.92 0, 175 0 M175 0 C191.67 0, 200 8.33, 200 25 M175 0 C191.67 0, 200 8.33, 200 25 M200 25 C200 40.8, 200 56.61, 200 75 M200 25 C200 37.32, 200 49.64, 200 75 M200 75 C200 91.67, 191.67 100, 175 100 M200 75 C200 91.67, 191.67 100, 175 100 M175 100 C137.73 100, 100.47 100, 25 100 M175 100 C128.5 100, 82.01 100, 25 100 M25 100 C8.33 100, 0 91.67, 0 75 M25 100 C8.33 100, 0 91.67, 0 75 M0 75 C0 63.43, 0 51.87, 0 25 M0 75 C0 57.58, 0 40.16, 0 25 M0 25 C0 8.33, 8.33 0, 25 0 M0 25 C0 8.33, 8.33 0, 25 0" stroke="#1e1e1e" stroke-width="2" fill="none"></path></g><g transform="translate(273.9583320617676 1147.5) rotate(0 36.04166793823242 12.5)"><text x="36.04166793823242" y="0" font-family="Virgil, Segoe UI Emoji" font-size="20px" fill="#1e1e1e" text-anchor="middle" style="white-space: pre;" direction="ltr" dominant-baseline="text-before-edge">FILE 2</text></g><g stroke-linecap="round"><g transform="translate(110 650) rotate(0 50 0)"><path d="M0 0 C16.67 0, 83.33 0, 100 0 M0 0 C16.67 0, 83.33 0, 100 0" stroke="#f08c00" stroke-width="2" fill="none"></path></g><g transform="translate(110 650) rotate(0 50 0)"><path d="M71.81 10.26 C79.32 7.53, 86.83 4.79, 100 0 M71.81 10.26 C80.86 6.97, 89.91 3.67, 100 0" stroke="#f08c00" stroke-width="2" fill="none"></path></g><g transform="translate(110 650) rotate(0 50 0)"><path d="M71.81 -10.26 C79.32 -7.53, 86.83 -4.79, 100 0 M71.81 -10.26 C80.86 -6.97, 89.91 -3.67, 100 0" stroke="#f08c00" stroke-width="2" fill="none"></path></g></g><mask></mask><g stroke-linecap="round"><g transform="translate(110 750) rotate(0 50 0)"><path d="M0 0 C16.67 0, 83.33 0, 100 0 M0 0 C16.67 0, 83.33 0, 100 0" stroke="#f08c00" stroke-width="2" fill="none"></path></g><g transform="translate(110 750) rotate(0 50 0)"><path d="M71.81 10.26 C77.71 8.11, 83.61 5.96, 100 0 M71.81 10.26 C80.41 7.13, 89.01 4, 100 0" stroke="#f08c00" stroke-width="2" fill="none"></path></g><g transform="translate(110 750) rotate(0 50 0)"><path d="M71.81 -10.26 C77.71 -8.11, 83.61 -5.96, 100 0 M71.81 -10.26 C80.41 -7.13, 89.01 -4, 100 0" stroke="#f08c00" stroke-width="2" fill="none"></path></g></g><mask></mask><g stroke-linecap="round" transform="translate(210 810) rotate(0 100 50)"><path d="M25 0 C84.95 0, 144.9 0, 175 0 M25 0 C80.78 0, 136.56 0, 175 0 M175 0 C191.67 0, 200 8.33, 200 25 M175 0 C191.67 0, 200 8.33, 200 25 M200 25 C200 39.13, 200 53.26, 200 75 M200 25 C200 36.43, 200 47.86, 200 75 M200 75 C200 91.67, 191.67 100, 175 100 M200 75 C200 91.67, 191.67 100, 175 100 M175 100 C144.4 100, 113.8 100, 25 100 M175 100 C139.09 100, 103.18 100, 25 100 M25 100 C8.33 100, 0 91.67, 0 75 M25 100 C8.33 100, 0 91.67, 0 75 M0 75 C0 61.82, 0 48.64, 0 25 M0 75 C0 60.79, 0 46.58, 0 25 M0 25 C0 8.33, 8.33 0, 25 0 M0 25 C0 8.33, 8.33 0, 25 0" stroke="#e03131" stroke-width="2" fill="none"></path></g><g transform="translate(240.25833129882812 847.5) rotate(0 69.74166870117188 12.5)"><text x="69.74166870117188" y="0" font-family="Virgil, Segoe UI Emoji" font-size="20px" fill="#e03131" text-anchor="middle" style="white-space: pre;" direction="ltr" dominant-baseline="text-before-edge">[99] ARCHIVE</text></g><g stroke-linecap="round"><g transform="translate(110 850) rotate(0 50 0)"><path d="M0 0 C16.67 0, 83.33 0, 100 0 M0 0 C16.67 0, 83.33 0, 100 0" stroke="#f08c00" stroke-width="2" fill="none"></path></g><g transform="translate(110 850) rotate(0 50 0)"><path d="M71.81 10.26 C79.65 7.41, 87.5 4.55, 100 0 M71.81 10.26 C81.79 6.63, 91.77 3, 100 0" stroke="#f08c00" stroke-width="2" fill="none"></path></g><g transform="translate(110 850) rotate(0 50 0)"><path d="M71.81 -10.26 C79.65 -7.41, 87.5 -4.55, 100 0 M71.81 -10.26 C81.79 -6.63, 91.77 -3, 100 0" stroke="#f08c00" stroke-width="2" fill="none"></path></g></g><mask></mask><g stroke-linecap="round"><g transform="translate(110 950) rotate(0 50 0)"><path d="M0 0 C16.67 0, 83.33 0, 100 0 M0 0 C16.67 0, 83.33 0, 100 0" stroke="#f08c00" stroke-width="2" fill="none"></path></g><g transform="translate(110 950) rotate(0 50 0)"><path d="M71.81 10.26 C82.68 6.3, 93.55 2.35, 100 0 M71.81 10.26 C77.84 8.06, 83.88 5.87, 100 0" stroke="#f08c00" stroke-width="2" fill="none"></path></g><g transform="translate(110 950) rotate(0 50 0)"><path d="M71.81 -10.26 C82.68 -6.3, 93.55 -2.35, 100 0 M71.81 -10.26 C77.84 -8.06, 83.88 -5.87, 100 0" stroke="#f08c00" stroke-width="2" fill="none"></path></g></g><mask></mask><g stroke-linecap="round"><g transform="translate(110 1050) rotate(0 50 0)"><path d="M0 0 C16.67 0, 83.33 0, 100 0 M0 0 C16.67 0, 83.33 0, 100 0" stroke="#f08c00" stroke-width="2" fill="none"></path></g><g transform="translate(110 1050) rotate(0 50 0)"><path d="M71.81 10.26 C82.35 6.43, 92.88 2.59, 100 0 M71.81 10.26 C82.4 6.4, 93 2.55, 100 0" stroke="#f08c00" stroke-width="2" fill="none"></path></g><g transform="translate(110 1050) rotate(0 50 0)"><path d="M71.81 -10.26 C82.35 -6.43, 92.88 -2.59, 100 0 M71.81 -10.26 C82.4 -6.4, 93 -2.55, 100 0" stroke="#f08c00" stroke-width="2" fill="none"></path></g></g><mask></mask><g stroke-linecap="round" transform="translate(610 210) rotate(0 100 50)"><path d="M25 0 C71.86 0, 118.72 0, 175 0 M25 0 C74.95 0, 124.9 0, 175 0 M175 0 C191.67 0, 200 8.33, 200 25 M175 0 C191.67 0, 200 8.33, 200 25 M200 25 C200 35.92, 200 46.84, 200 75 M200 25 C200 40.87, 200 56.73, 200 75 M200 75 C200 91.67, 191.67 100, 175 100 M200 75 C200 91.67, 191.67 100, 175 100 M175 100 C125.27 100, 75.55 100, 25 100 M175 100 C127.96 100, 80.93 100, 25 100 M25 100 C8.33 100, 0 91.67, 0 75 M25 100 C8.33 100, 0 91.67, 0 75 M0 75 C0 60.71, 0 46.41, 0 25 M0 75 C0 59.13, 0 43.26, 0 25 M0 25 C0 8.33, 8.33 0, 25 0 M0 25 C0 8.33, 8.33 0, 25 0" stroke="#e03131" stroke-width="2" fill="none"></path></g><g transform="translate(640.2583312988281 247.5) rotate(0 69.74166870117188 12.5)"><text x="69.74166870117188" y="0" font-family="Virgil, Segoe UI Emoji" font-size="20px" fill="#e03131" text-anchor="middle" style="white-space: pre;" direction="ltr" dominant-baseline="text-before-edge">[99] ARCHIVE</text></g><g stroke-linecap="round"><g transform="translate(410 250) rotate(0 50 0)"><path d="M0 0 C28.88 0, 57.76 0, 100 0 M0 0 C25.56 0, 51.11 0, 100 0" stroke="#1971c2" stroke-width="2" fill="none"></path></g></g><mask></mask><g stroke-linecap="round"><g transform="translate(510 250) rotate(0 50 100)"><path d="M0 0 C0 54.52, 0 109.04, 0 200 M0 0 C0 50.7, 0 101.41, 0 200 M0 200 C27.7 200, 55.4 200, 100 200 M0 200 C21.29 200, 42.59 200, 100 200" stroke="#1971c2" stroke-width="2" fill="none"></path></g><g transform="translate(510 250) rotate(0 50 100)"><path d="M71.81 210.26 C79.49 207.46, 87.18 204.67, 100 200 M71.81 210.26 C78.96 207.66, 86.1 205.06, 100 200" stroke="#1971c2" stroke-width="2" fill="none"></path></g><g transform="translate(510 250) rotate(0 50 100)"><path d="M71.81 189.74 C79.49 192.54, 87.18 195.33, 100 200 M71.81 189.74 C78.96 192.34, 86.1 194.94, 100 200" stroke="#1971c2" stroke-width="2" fill="none"></path></g></g><mask></mask><g stroke-linecap="round"><g transform="translate(510 250) rotate(0 50 0)"><path d="M0 0 C35.89 0, 71.78 0, 100 0 M0 0 C30.26 0, 60.52 0, 100 0" stroke="#1971c2" stroke-width="2" fill="none"></path></g><g transform="translate(510 250) rotate(0 50 0)"><path d="M71.81 10.26 C81.93 6.58, 92.04 2.9, 100 0 M71.81 10.26 C80.34 7.16, 88.87 4.05, 100 0" stroke="#1971c2" stroke-width="2" fill="none"></path></g><g transform="translate(510 250) rotate(0 50 0)"><path d="M71.81 -10.26 C81.93 -6.58, 92.04 -2.9, 100 0 M71.81 -10.26 C80.34 -7.16, 88.87 -4.05, 100 0" stroke="#1971c2" stroke-width="2" fill="none"></path></g></g><mask></mask><g stroke-linecap="round"><g transform="translate(510 350) rotate(0 50 0)"><path d="M0 0 C24.83 0, 49.67 0, 100 0 M0 0 C35.77 0, 71.54 0, 100 0" stroke="#1971c2" stroke-width="2" fill="none"></path></g><g transform="translate(510 350) rotate(0 50 0)"><path d="M71.81 10.26 C78.81 7.71, 85.81 5.16, 100 0 M71.81 10.26 C81.89 6.59, 91.98 2.92, 100 0" stroke="#1971c2" stroke-width="2" fill="none"></path></g><g transform="translate(510 350) rotate(0 50 0)"><path d="M71.81 -10.26 C78.81 -7.71, 85.81 -5.16, 100 0 M71.81 -10.26 C81.89 -6.59, 91.98 -2.92, 100 0" stroke="#1971c2" stroke-width="2" fill="none"></path></g></g><mask></mask><g stroke-linecap="round" transform="translate(610 310) rotate(0 100 50)"><path d="M25 0 C82.07 0, 139.14 0, 175 0 M25 0 C78.81 0, 132.61 0, 175 0 M175 0 C191.67 0, 200 8.33, 200 25 M175 0 C191.67 0, 200 8.33, 200 25 M200 25 C200 37.01, 200 49.03, 200 75 M200 25 C200 36.49, 200 47.97, 200 75 M200 75 C200 91.67, 191.67 100, 175 100 M200 75 C200 91.67, 191.67 100, 175 100 M175 100 C126.02 100, 77.04 100, 25 100 M175 100 C120.9 100, 66.8 100, 25 100 M25 100 C8.33 100, 0 91.67, 0 75 M25 100 C8.33 100, 0 91.67, 0 75 M0 75 C0 64.93, 0 54.86, 0 25 M0 75 C0 56.55, 0 38.1, 0 25 M0 25 C0 8.33, 8.33 0, 25 0 M0 25 C0 8.33, 8.33 0, 25 0" stroke="#1e1e1e" stroke-width="2" fill="none"></path></g><g transform="translate(678.3666667938232 347.5) rotate(0 31.633333206176758 12.5)"><text x="31.633333206176758" y="0" font-family="Virgil, Segoe UI Emoji" font-size="20px" fill="#1e1e1e" text-anchor="middle" style="white-space: pre;" direction="ltr" dominant-baseline="text-before-edge">FILE 1</text></g><g stroke-linecap="round" transform="translate(610 410) rotate(0 100 50)"><path d="M25 0 C60.79 0, 96.57 0, 175 0 M25 0 C72.98 0, 120.95 0, 175 0 M175 0 C191.67 0, 200 8.33, 200 25 M175 0 C191.67 0, 200 8.33, 200 25 M200 25 C200 41.03, 200 57.06, 200 75 M200 25 C200 37.03, 200 49.07, 200 75 M200 75 C200 91.67, 191.67 100, 175 100 M200 75 C200 91.67, 191.67 100, 175 100 M175 100 C137.32 100, 99.65 100, 25 100 M175 100 C127.51 100, 80.03 100, 25 100 M25 100 C8.33 100, 0 91.67, 0 75 M25 100 C8.33 100, 0 91.67, 0 75 M0 75 C0 56.52, 0 38.05, 0 25 M0 75 C0 64.82, 0 54.64, 0 25 M0 25 C0 8.33, 8.33 0, 25 0 M0 25 C0 8.33, 8.33 0, 25 0" stroke="#1e1e1e" stroke-width="2" fill="none"></path></g><g transform="translate(628.8583297729492 435) rotate(0 81.14167022705078 25)"><text x="81.14167022705078" y="0" font-family="Virgil, Segoe UI Emoji" font-size="20px" fill="#1e1e1e" text-anchor="middle" style="white-space: pre;" direction="ltr" dominant-baseline="text-before-edge">FILE 2 - </text><text x="81.14167022705078" y="25" font-family="Virgil, Segoe UI Emoji" font-size="20px" fill="#1e1e1e" text-anchor="middle" style="white-space: pre;" direction="ltr" dominant-baseline="text-before-edge">DESCTRIPTION</text></g><g stroke-linecap="round"><g transform="translate(410 850) rotate(0 100 0)"><path d="M0 0 C64.23 0, 128.46 0, 200 0 M0 0 C66.3 0, 132.6 0, 200 0" stroke="#e03131" stroke-width="2" fill="none"></path></g><g transform="translate(410 850) rotate(0 100 0)"><path d="M171.81 10.26 C180.86 6.97, 189.92 3.67, 200 0 M171.81 10.26 C181.15 6.86, 190.5 3.46, 200 0" stroke="#e03131" stroke-width="2" fill="none"></path></g><g transform="translate(410 850) rotate(0 100 0)"><path d="M171.81 -10.26 C180.86 -6.97, 189.92 -3.67, 200 0 M171.81 -10.26 C181.15 -6.86, 190.5 -3.46, 200 0" stroke="#e03131" stroke-width="2" fill="none"></path></g></g><mask></mask><g stroke-linecap="round" transform="translate(610 810) rotate(0 100 50)"><path d="M25 0 C67.46 0, 109.91 0, 175 0 M25 0 C64.6 0, 104.21 0, 175 0 M175 0 C191.67 0, 200 8.33, 200 25 M175 0 C191.67 0, 200 8.33, 200 25 M200 25 C200 42.83, 200 60.66, 200 75 M200 25 C200 41.34, 200 57.68, 200 75 M200 75 C200 91.67, 191.67 100, 175 100 M200 75 C200 91.67, 191.67 100, 175 100 M175 100 C138.31 100, 101.62 100, 25 100 M175 100 C141.64 100, 108.29 100, 25 100 M25 100 C8.33 100, 0 91.67, 0 75 M25 100 C8.33 100, 0 91.67, 0 75 M0 75 C0 62.55, 0 50.11, 0 25 M0 75 C0 62.79, 0 50.57, 0 25 M0 25 C0 8.33, 8.33 0, 25 0 M0 25 C0 8.33, 8.33 0, 25 0" stroke="#1971c2" stroke-width="2" fill="none"></path></g><g transform="translate(655.1416664123535 835) rotate(0 54.858333587646484 25)"><text x="54.858333587646484" y="0" font-family="Virgil, Segoe UI Emoji" font-size="20px" fill="#1971c2" text-anchor="middle" style="white-space: pre;" direction="ltr" dominant-baseline="text-before-edge">DELETED </text><text x="54.858333587646484" y="25" font-family="Virgil, Segoe UI Emoji" font-size="20px" fill="#1971c2" text-anchor="middle" style="white-space: pre;" direction="ltr" dominant-baseline="text-before-edge">FOLDER</text></g><g stroke-linecap="round" transform="translate(610 910) rotate(0 100 50)"><path d="M25 0 C65.18 0, 105.36 0, 175 0 M25 0 C59.29 0, 93.59 0, 175 0 M175 0 C191.67 0, 200 8.33, 200 25 M175 0 C191.67 0, 200 8.33, 200 25 M200 25 C200 39.32, 200 53.63, 200 75 M200 25 C200 41.28, 200 57.56, 200 75 M200 75 C200 91.67, 191.67 100, 175 100 M200 75 C200 91.67, 191.67 100, 175 100 M175 100 C118.4 100, 61.8 100, 25 100 M175 100 C142.1 100, 109.2 100, 25 100 M25 100 C8.33 100, 0 91.67, 0 75 M25 100 C8.33 100, 0 91.67, 0 75 M0 75 C0 63.81, 0 52.61, 0 25 M0 75 C0 58.9, 0 42.81, 0 25 M0 25 C0 8.33, 8.33 0, 25 0 M0 25 C0 8.33, 8.33 0, 25 0" stroke="#1e1e1e" stroke-width="2" fill="none"></path></g><g transform="translate(631.216667175293 947.5) rotate(0 78.78333282470703 12.5)"><text x="78.78333282470703" y="0" font-family="Virgil, Segoe UI Emoji" font-size="20px" fill="#1e1e1e" text-anchor="middle" style="white-space: pre;" direction="ltr" dominant-baseline="text-before-edge">DELETED FILE</text></g><g stroke-linecap="round"><g transform="translate(510 850) rotate(0 50 50)"><path d="M0 0 C0 39, 0 78, 0 100 M0 0 C0 33.22, 0 66.45, 0 100 M0 100 C22.39 100, 44.78 100, 100 100 M0 100 C32.19 100, 64.39 100, 100 100" stroke="#e03131" stroke-width="2" fill="none"></path></g><g transform="translate(510 850) rotate(0 50 50)"><path d="M71.81 110.26 C82.8 106.26, 93.8 102.26, 100 100 M71.81 110.26 C81.18 106.85, 90.54 103.44, 100 100" stroke="#e03131" stroke-width="2" fill="none"></path></g><g transform="translate(510 850) rotate(0 50 50)"><path d="M71.81 89.74 C82.8 93.74, 93.8 97.74, 100 100 M71.81 89.74 C81.18 93.15, 90.54 96.56, 100 100" stroke="#e03131" stroke-width="2" fill="none"></path></g></g><mask></mask><g stroke-linecap="round" transform="translate(690 530) rotate(0 10 10)"><path d="M20 10 C20 10.58, 19.95 11.17, 19.85 11.74 C19.75 12.31, 19.59 12.88, 19.4 13.42 C19.2 13.96, 18.95 14.5, 18.66 15 C18.37 15.5, 18.03 15.98, 17.66 16.43 C17.29 16.87, 16.87 17.29, 16.43 17.66 C15.98 18.03, 15.5 18.37, 15 18.66 C14.5 18.95, 13.96 19.2, 13.42 19.4 C12.88 19.59, 12.31 19.75, 11.74 19.85 C11.17 19.95, 10.58 20, 10 20 C9.42 20, 8.83 19.95, 8.26 19.85 C7.69 19.75, 7.12 19.59, 6.58 19.4 C6.04 19.2, 5.5 18.95, 5 18.66 C4.5 18.37, 4.02 18.03, 3.57 17.66 C3.13 17.29, 2.71 16.87, 2.34 16.43 C1.97 15.98, 1.63 15.5, 1.34 15 C1.05 14.5, 0.8 13.96, 0.6 13.42 C0.41 12.88, 0.25 12.31, 0.15 11.74 C0.05 11.17, 0 10.58, 0 10 C0 9.42, 0.05 8.83, 0.15 8.26 C0.25 7.69, 0.41 7.12, 0.6 6.58 C0.8 6.04, 1.05 5.5, 1.34 5 C1.63 4.5, 1.97 4.02, 2.34 3.57 C2.71 3.13, 3.13 2.71, 3.57 2.34 C4.02 1.97, 4.5 1.63, 5 1.34 C5.5 1.05, 6.04 0.8, 6.58 0.6 C7.12 0.41, 7.69 0.25, 8.26 0.15 C8.83 0.05, 9.42 0, 10 0 C10.58 0, 11.17 0.05, 11.74 0.15 C12.31 0.25, 12.88 0.41, 13.42 0.6 C13.96 0.8, 14.5 1.05, 15 1.34 C15.5 1.63, 15.98 1.97, 16.43 2.34 C16.87 2.71, 17.29 3.13, 17.66 3.57 C18.03 4.02, 18.37 4.5, 18.66 5 C18.95 5.5, 19.2 6.04, 19.4 6.58 C19.59 7.12, 19.75 7.69, 19.85 8.26 C19.95 8.83, 19.97 9.71, 20 10 C20.03 10.29, 20.03 9.71, 20 10" stroke="none" stroke-width="0" fill="#1e1e1e"></path><path d="M20 10 C20 10.58, 19.95 11.17, 19.85 11.74 C19.75 12.31, 19.59 12.88, 19.4 13.42 C19.2 13.96, 18.95 14.5, 18.66 15 C18.37 15.5, 18.03 15.98, 17.66 16.43 C17.29 16.87, 16.87 17.29, 16.43 17.66 C15.98 18.03, 15.5 18.37, 15 18.66 C14.5 18.95, 13.96 19.2, 13.42 19.4 C12.88 19.59, 12.31 19.75, 11.74 19.85 C11.17 19.95, 10.58 20, 10 20 C9.42 20, 8.83 19.95, 8.26 19.85 C7.69 19.75, 7.12 19.59, 6.58 19.4 C6.04 19.2, 5.5 18.95, 5 18.66 C4.5 18.37, 4.02 18.03, 3.57 17.66 C3.13 17.29, 2.71 16.87, 2.34 16.43 C1.97 15.98, 1.63 15.5, 1.34 15 C1.05 14.5, 0.8 13.96, 0.6 13.42 C0.41 12.88, 0.25 12.31, 0.15 11.74 C0.05 11.17, 0 10.58, 0 10 C0 9.42, 0.05 8.83, 0.15 8.26 C0.25 7.69, 0.41 7.12, 0.6 6.58 C0.8 6.04, 1.05 5.5, 1.34 5 C1.63 4.5, 1.97 4.02, 2.34 3.57 C2.71 3.13, 3.13 2.71, 3.57 2.34 C4.02 1.97, 4.5 1.63, 5 1.34 C5.5 1.05, 6.04 0.8, 6.58 0.6 C7.12 0.41, 7.69 0.25, 8.26 0.15 C8.83 0.05, 9.42 0, 10 0 C10.58 0, 11.17 0.05, 11.74 0.15 C12.31 0.25, 12.88 0.41, 13.42 0.6 C13.96 0.8, 14.5 1.05, 15 1.34 C15.5 1.63, 15.98 1.97, 16.43 2.34 C16.87 2.71, 17.29 3.13, 17.66 3.57 C18.03 4.02, 18.37 4.5, 18.66 5 C18.95 5.5, 19.2 6.04, 19.4 6.58 C19.59 7.12, 19.75 7.69, 19.85 8.26 C19.95 8.83, 19.97 9.71, 20 10 C20.03 10.29, 20.03 9.71, 20 10" stroke="#1e1e1e" stroke-width="2" fill="none"></path></g><g stroke-linecap="round" transform="translate(690 570) rotate(0 10 10)"><path d="M20 10 C20 10.58, 19.95 11.17, 19.85 11.74 C19.75 12.31, 19.59 12.88, 19.4 13.42 C19.2 13.96, 18.95 14.5, 18.66 15 C18.37 15.5, 18.03 15.98, 17.66 16.43 C17.29 16.87, 16.87 17.29, 16.43 17.66 C15.98 18.03, 15.5 18.37, 15 18.66 C14.5 18.95, 13.96 19.2, 13.42 19.4 C12.88 19.59, 12.31 19.75, 11.74 19.85 C11.17 19.95, 10.58 20, 10 20 C9.42 20, 8.83 19.95, 8.26 19.85 C7.69 19.75, 7.12 19.59, 6.58 19.4 C6.04 19.2, 5.5 18.95, 5 18.66 C4.5 18.37, 4.02 18.03, 3.57 17.66 C3.13 17.29, 2.71 16.87, 2.34 16.43 C1.97 15.98, 1.63 15.5, 1.34 15 C1.05 14.5, 0.8 13.96, 0.6 13.42 C0.41 12.88, 0.25 12.31, 0.15 11.74 C0.05 11.17, 0 10.58, 0 10 C0 9.42, 0.05 8.83, 0.15 8.26 C0.25 7.69, 0.41 7.12, 0.6 6.58 C0.8 6.04, 1.05 5.5, 1.34 5 C1.63 4.5, 1.97 4.02, 2.34 3.57 C2.71 3.13, 3.13 2.71, 3.57 2.34 C4.02 1.97, 4.5 1.63, 5 1.34 C5.5 1.05, 6.04 0.8, 6.58 0.6 C7.12 0.41, 7.69 0.25, 8.26 0.15 C8.83 0.05, 9.42 0, 10 0 C10.58 0, 11.17 0.05, 11.74 0.15 C12.31 0.25, 12.88 0.41, 13.42 0.6 C13.96 0.8, 14.5 1.05, 15 1.34 C15.5 1.63, 15.98 1.97, 16.43 2.34 C16.87 2.71, 17.29 3.13, 17.66 3.57 C18.03 4.02, 18.37 4.5, 18.66 5 C18.95 5.5, 19.2 6.04, 19.4 6.58 C19.59 7.12, 19.75 7.69, 19.85 8.26 C19.95 8.83, 19.97 9.71, 20 10 C20.03 10.29, 20.03 9.71, 20 10" stroke="none" stroke-width="0" fill="#1e1e1e"></path><path d="M20 10 C20 10.58, 19.95 11.17, 19.85 11.74 C19.75 12.31, 19.59 12.88, 19.4 13.42 C19.2 13.96, 18.95 14.5, 18.66 15 C18.37 15.5, 18.03 15.98, 17.66 16.43 C17.29 16.87, 16.87 17.29, 16.43 17.66 C15.98 18.03, 15.5 18.37, 15 18.66 C14.5 18.95, 13.96 19.2, 13.42 19.4 C12.88 19.59, 12.31 19.75, 11.74 19.85 C11.17 19.95, 10.58 20, 10 20 C9.42 20, 8.83 19.95, 8.26 19.85 C7.69 19.75, 7.12 19.59, 6.58 19.4 C6.04 19.2, 5.5 18.95, 5 18.66 C4.5 18.37, 4.02 18.03, 3.57 17.66 C3.13 17.29, 2.71 16.87, 2.34 16.43 C1.97 15.98, 1.63 15.5, 1.34 15 C1.05 14.5, 0.8 13.96, 0.6 13.42 C0.41 12.88, 0.25 12.31, 0.15 11.74 C0.05 11.17, 0 10.58, 0 10 C0 9.42, 0.05 8.83, 0.15 8.26 C0.25 7.69, 0.41 7.12, 0.6 6.58 C0.8 6.04, 1.05 5.5, 1.34 5 C1.63 4.5, 1.97 4.02, 2.34 3.57 C2.71 3.13, 3.13 2.71, 3.57 2.34 C4.02 1.97, 4.5 1.63, 5 1.34 C5.5 1.05, 6.04 0.8, 6.58 0.6 C7.12 0.41, 7.69 0.25, 8.26 0.15 C8.83 0.05, 9.42 0, 10 0 C10.58 0, 11.17 0.05, 11.74 0.15 C12.31 0.25, 12.88 0.41, 13.42 0.6 C13.96 0.8, 14.5 1.05, 15 1.34 C15.5 1.63, 15.98 1.97, 16.43 2.34 C16.87 2.71, 17.29 3.13, 17.66 3.57 C18.03 4.02, 18.37 4.5, 18.66 5 C18.95 5.5, 19.2 6.04, 19.4 6.58 C19.59 7.12, 19.75 7.69, 19.85 8.26 C19.95 8.83, 19.97 9.71, 20 10 C20.03 10.29, 20.03 9.71, 20 10" stroke="#1e1e1e" stroke-width="2" fill="none"></path></g><g stroke-linecap="round" transform="translate(690 610) rotate(0 10 10)"><path d="M20 10 C20 10.58, 19.95 11.17, 19.85 11.74 C19.75 12.31, 19.59 12.88, 19.4 13.42 C19.2 13.96, 18.95 14.5, 18.66 15 C18.37 15.5, 18.03 15.98, 17.66 16.43 C17.29 16.87, 16.87 17.29, 16.43 17.66 C15.98 18.03, 15.5 18.37, 15 18.66 C14.5 18.95, 13.96 19.2, 13.42 19.4 C12.88 19.59, 12.31 19.75, 11.74 19.85 C11.17 19.95, 10.58 20, 10 20 C9.42 20, 8.83 19.95, 8.26 19.85 C7.69 19.75, 7.12 19.59, 6.58 19.4 C6.04 19.2, 5.5 18.95, 5 18.66 C4.5 18.37, 4.02 18.03, 3.57 17.66 C3.13 17.29, 2.71 16.87, 2.34 16.43 C1.97 15.98, 1.63 15.5, 1.34 15 C1.05 14.5, 0.8 13.96, 0.6 13.42 C0.41 12.88, 0.25 12.31, 0.15 11.74 C0.05 11.17, 0 10.58, 0 10 C0 9.42, 0.05 8.83, 0.15 8.26 C0.25 7.69, 0.41 7.12, 0.6 6.58 C0.8 6.04, 1.05 5.5, 1.34 5 C1.63 4.5, 1.97 4.02, 2.34 3.57 C2.71 3.13, 3.13 2.71, 3.57 2.34 C4.02 1.97, 4.5 1.63, 5 1.34 C5.5 1.05, 6.04 0.8, 6.58 0.6 C7.12 0.41, 7.69 0.25, 8.26 0.15 C8.83 0.05, 9.42 0, 10 0 C10.58 0, 11.17 0.05, 11.74 0.15 C12.31 0.25, 12.88 0.41, 13.42 0.6 C13.96 0.8, 14.5 1.05, 15 1.34 C15.5 1.63, 15.98 1.97, 16.43 2.34 C16.87 2.71, 17.29 3.13, 17.66 3.57 C18.03 4.02, 18.37 4.5, 18.66 5 C18.95 5.5, 19.2 6.04, 19.4 6.58 C19.59 7.12, 19.75 7.69, 19.85 8.26 C19.95 8.83, 19.97 9.71, 20 10 C20.03 10.29, 20.03 9.71, 20 10" stroke="none" stroke-width="0" fill="#1e1e1e"></path><path d="M20 10 C20 10.58, 19.95 11.17, 19.85 11.74 C19.75 12.31, 19.59 12.88, 19.4 13.42 C19.2 13.96, 18.95 14.5, 18.66 15 C18.37 15.5, 18.03 15.98, 17.66 16.43 C17.29 16.87, 16.87 17.29, 16.43 17.66 C15.98 18.03, 15.5 18.37, 15 18.66 C14.5 18.95, 13.96 19.2, 13.42 19.4 C12.88 19.59, 12.31 19.75, 11.74 19.85 C11.17 19.95, 10.58 20, 10 20 C9.42 20, 8.83 19.95, 8.26 19.85 C7.69 19.75, 7.12 19.59, 6.58 19.4 C6.04 19.2, 5.5 18.95, 5 18.66 C4.5 18.37, 4.02 18.03, 3.57 17.66 C3.13 17.29, 2.71 16.87, 2.34 16.43 C1.97 15.98, 1.63 15.5, 1.34 15 C1.05 14.5, 0.8 13.96, 0.6 13.42 C0.41 12.88, 0.25 12.31, 0.15 11.74 C0.05 11.17, 0 10.58, 0 10 C0 9.42, 0.05 8.83, 0.15 8.26 C0.25 7.69, 0.41 7.12, 0.6 6.58 C0.8 6.04, 1.05 5.5, 1.34 5 C1.63 4.5, 1.97 4.02, 2.34 3.57 C2.71 3.13, 3.13 2.71, 3.57 2.34 C4.02 1.97, 4.5 1.63, 5 1.34 C5.5 1.05, 6.04 0.8, 6.58 0.6 C7.12 0.41, 7.69 0.25, 8.26 0.15 C8.83 0.05, 9.42 0, 10 0 C10.58 0, 11.17 0.05, 11.74 0.15 C12.31 0.25, 12.88 0.41, 13.42 0.6 C13.96 0.8, 14.5 1.05, 15 1.34 C15.5 1.63, 15.98 1.97, 16.43 2.34 C16.87 2.71, 17.29 3.13, 17.66 3.57 C18.03 4.02, 18.37 4.5, 18.66 5 C18.95 5.5, 19.2 6.04, 19.4 6.58 C19.59 7.12, 19.75 7.69, 19.85 8.26 C19.95 8.83, 19.97 9.71, 20 10 C20.03 10.29, 20.03 9.71, 20 10" stroke="#1e1e1e" stroke-width="2" fill="none"></path></g><g stroke-linecap="round" transform="translate(690 1030) rotate(0 10 10)"><path d="M20 10 C20 10.58, 19.95 11.17, 19.85 11.74 C19.75 12.31, 19.59 12.88, 19.4 13.42 C19.2 13.96, 18.95 14.5, 18.66 15 C18.37 15.5, 18.03 15.98, 17.66 16.43 C17.29 16.87, 16.87 17.29, 16.43 17.66 C15.98 18.03, 15.5 18.37, 15 18.66 C14.5 18.95, 13.96 19.2, 13.42 19.4 C12.88 19.59, 12.31 19.75, 11.74 19.85 C11.17 19.95, 10.58 20, 10 20 C9.42 20, 8.83 19.95, 8.26 19.85 C7.69 19.75, 7.12 19.59, 6.58 19.4 C6.04 19.2, 5.5 18.95, 5 18.66 C4.5 18.37, 4.02 18.03, 3.57 17.66 C3.13 17.29, 2.71 16.87, 2.34 16.43 C1.97 15.98, 1.63 15.5, 1.34 15 C1.05 14.5, 0.8 13.96, 0.6 13.42 C0.41 12.88, 0.25 12.31, 0.15 11.74 C0.05 11.17, 0 10.58, 0 10 C0 9.42, 0.05 8.83, 0.15 8.26 C0.25 7.69, 0.41 7.12, 0.6 6.58 C0.8 6.04, 1.05 5.5, 1.34 5 C1.63 4.5, 1.97 4.02, 2.34 3.57 C2.71 3.13, 3.13 2.71, 3.57 2.34 C4.02 1.97, 4.5 1.63, 5 1.34 C5.5 1.05, 6.04 0.8, 6.58 0.6 C7.12 0.41, 7.69 0.25, 8.26 0.15 C8.83 0.05, 9.42 0, 10 0 C10.58 0, 11.17 0.05, 11.74 0.15 C12.31 0.25, 12.88 0.41, 13.42 0.6 C13.96 0.8, 14.5 1.05, 15 1.34 C15.5 1.63, 15.98 1.97, 16.43 2.34 C16.87 2.71, 17.29 3.13, 17.66 3.57 C18.03 4.02, 18.37 4.5, 18.66 5 C18.95 5.5, 19.2 6.04, 19.4 6.58 C19.59 7.12, 19.75 7.69, 19.85 8.26 C19.95 8.83, 19.97 9.71, 20 10 C20.03 10.29, 20.03 9.71, 20 10" stroke="none" stroke-width="0" fill="#1e1e1e"></path><path d="M20 10 C20 10.58, 19.95 11.17, 19.85 11.74 C19.75 12.31, 19.59 12.88, 19.4 13.42 C19.2 13.96, 18.95 14.5, 18.66 15 C18.37 15.5, 18.03 15.98, 17.66 16.43 C17.29 16.87, 16.87 17.29, 16.43 17.66 C15.98 18.03, 15.5 18.37, 15 18.66 C14.5 18.95, 13.96 19.2, 13.42 19.4 C12.88 19.59, 12.31 19.75, 11.74 19.85 C11.17 19.95, 10.58 20, 10 20 C9.42 20, 8.83 19.95, 8.26 19.85 C7.69 19.75, 7.12 19.59, 6.58 19.4 C6.04 19.2, 5.5 18.95, 5 18.66 C4.5 18.37, 4.02 18.03, 3.57 17.66 C3.13 17.29, 2.71 16.87, 2.34 16.43 C1.97 15.98, 1.63 15.5, 1.34 15 C1.05 14.5, 0.8 13.96, 0.6 13.42 C0.41 12.88, 0.25 12.31, 0.15 11.74 C0.05 11.17, 0 10.58, 0 10 C0 9.42, 0.05 8.83, 0.15 8.26 C0.25 7.69, 0.41 7.12, 0.6 6.58 C0.8 6.04, 1.05 5.5, 1.34 5 C1.63 4.5, 1.97 4.02, 2.34 3.57 C2.71 3.13, 3.13 2.71, 3.57 2.34 C4.02 1.97, 4.5 1.63, 5 1.34 C5.5 1.05, 6.04 0.8, 6.58 0.6 C7.12 0.41, 7.69 0.25, 8.26 0.15 C8.83 0.05, 9.42 0, 10 0 C10.58 0, 11.17 0.05, 11.74 0.15 C12.31 0.25, 12.88 0.41, 13.42 0.6 C13.96 0.8, 14.5 1.05, 15 1.34 C15.5 1.63, 15.98 1.97, 16.43 2.34 C16.87 2.71, 17.29 3.13, 17.66 3.57 C18.03 4.02, 18.37 4.5, 18.66 5 C18.95 5.5, 19.2 6.04, 19.4 6.58 C19.59 7.12, 19.75 7.69, 19.85 8.26 C19.95 8.83, 19.97 9.71, 20 10 C20.03 10.29, 20.03 9.71, 20 10" stroke="#1e1e1e" stroke-width="2" fill="none"></path></g><g stroke-linecap="round" transform="translate(690 1070) rotate(0 10 10)"><path d="M20 10 C20 10.58, 19.95 11.17, 19.85 11.74 C19.75 12.31, 19.59 12.88, 19.4 13.42 C19.2 13.96, 18.95 14.5, 18.66 15 C18.37 15.5, 18.03 15.98, 17.66 16.43 C17.29 16.87, 16.87 17.29, 16.43 17.66 C15.98 18.03, 15.5 18.37, 15 18.66 C14.5 18.95, 13.96 19.2, 13.42 19.4 C12.88 19.59, 12.31 19.75, 11.74 19.85 C11.17 19.95, 10.58 20, 10 20 C9.42 20, 8.83 19.95, 8.26 19.85 C7.69 19.75, 7.12 19.59, 6.58 19.4 C6.04 19.2, 5.5 18.95, 5 18.66 C4.5 18.37, 4.02 18.03, 3.57 17.66 C3.13 17.29, 2.71 16.87, 2.34 16.43 C1.97 15.98, 1.63 15.5, 1.34 15 C1.05 14.5, 0.8 13.96, 0.6 13.42 C0.41 12.88, 0.25 12.31, 0.15 11.74 C0.05 11.17, 0 10.58, 0 10 C0 9.42, 0.05 8.83, 0.15 8.26 C0.25 7.69, 0.41 7.12, 0.6 6.58 C0.8 6.04, 1.05 5.5, 1.34 5 C1.63 4.5, 1.97 4.02, 2.34 3.57 C2.71 3.13, 3.13 2.71, 3.57 2.34 C4.02 1.97, 4.5 1.63, 5 1.34 C5.5 1.05, 6.04 0.8, 6.58 0.6 C7.12 0.41, 7.69 0.25, 8.26 0.15 C8.83 0.05, 9.42 0, 10 0 C10.58 0, 11.17 0.05, 11.74 0.15 C12.31 0.25, 12.88 0.41, 13.42 0.6 C13.96 0.8, 14.5 1.05, 15 1.34 C15.5 1.63, 15.98 1.97, 16.43 2.34 C16.87 2.71, 17.29 3.13, 17.66 3.57 C18.03 4.02, 18.37 4.5, 18.66 5 C18.95 5.5, 19.2 6.04, 19.4 6.58 C19.59 7.12, 19.75 7.69, 19.85 8.26 C19.95 8.83, 19.97 9.71, 20 10 C20.03 10.29, 20.03 9.71, 20 10" stroke="none" stroke-width="0" fill="#1e1e1e"></path><path d="M20 10 C20 10.58, 19.95 11.17, 19.85 11.74 C19.75 12.31, 19.59 12.88, 19.4 13.42 C19.2 13.96, 18.95 14.5, 18.66 15 C18.37 15.5, 18.03 15.98, 17.66 16.43 C17.29 16.87, 16.87 17.29, 16.43 17.66 C15.98 18.03, 15.5 18.37, 15 18.66 C14.5 18.95, 13.96 19.2, 13.42 19.4 C12.88 19.59, 12.31 19.75, 11.74 19.85 C11.17 19.95, 10.58 20, 10 20 C9.42 20, 8.83 19.95, 8.26 19.85 C7.69 19.75, 7.12 19.59, 6.58 19.4 C6.04 19.2, 5.5 18.95, 5 18.66 C4.5 18.37, 4.02 18.03, 3.57 17.66 C3.13 17.29, 2.71 16.87, 2.34 16.43 C1.97 15.98, 1.63 15.5, 1.34 15 C1.05 14.5, 0.8 13.96, 0.6 13.42 C0.41 12.88, 0.25 12.31, 0.15 11.74 C0.05 11.17, 0 10.58, 0 10 C0 9.42, 0.05 8.83, 0.15 8.26 C0.25 7.69, 0.41 7.12, 0.6 6.58 C0.8 6.04, 1.05 5.5, 1.34 5 C1.63 4.5, 1.97 4.02, 2.34 3.57 C2.71 3.13, 3.13 2.71, 3.57 2.34 C4.02 1.97, 4.5 1.63, 5 1.34 C5.5 1.05, 6.04 0.8, 6.58 0.6 C7.12 0.41, 7.69 0.25, 8.26 0.15 C8.83 0.05, 9.42 0, 10 0 C10.58 0, 11.17 0.05, 11.74 0.15 C12.31 0.25, 12.88 0.41, 13.42 0.6 C13.96 0.8, 14.5 1.05, 15 1.34 C15.5 1.63, 15.98 1.97, 16.43 2.34 C16.87 2.71, 17.29 3.13, 17.66 3.57 C18.03 4.02, 18.37 4.5, 18.66 5 C18.95 5.5, 19.2 6.04, 19.4 6.58 C19.59 7.12, 19.75 7.69, 19.85 8.26 C19.95 8.83, 19.97 9.71, 20 10 C20.03 10.29, 20.03 9.71, 20 10" stroke="#1e1e1e" stroke-width="2" fill="none"></path></g><g stroke-linecap="round" transform="translate(690 1110) rotate(0 10 10)"><path d="M20 10 C20 10.58, 19.95 11.17, 19.85 11.74 C19.75 12.31, 19.59 12.88, 19.4 13.42 C19.2 13.96, 18.95 14.5, 18.66 15 C18.37 15.5, 18.03 15.98, 17.66 16.43 C17.29 16.87, 16.87 17.29, 16.43 17.66 C15.98 18.03, 15.5 18.37, 15 18.66 C14.5 18.95, 13.96 19.2, 13.42 19.4 C12.88 19.59, 12.31 19.75, 11.74 19.85 C11.17 19.95, 10.58 20, 10 20 C9.42 20, 8.83 19.95, 8.26 19.85 C7.69 19.75, 7.12 19.59, 6.58 19.4 C6.04 19.2, 5.5 18.95, 5 18.66 C4.5 18.37, 4.02 18.03, 3.57 17.66 C3.13 17.29, 2.71 16.87, 2.34 16.43 C1.97 15.98, 1.63 15.5, 1.34 15 C1.05 14.5, 0.8 13.96, 0.6 13.42 C0.41 12.88, 0.25 12.31, 0.15 11.74 C0.05 11.17, 0 10.58, 0 10 C0 9.42, 0.05 8.83, 0.15 8.26 C0.25 7.69, 0.41 7.12, 0.6 6.58 C0.8 6.04, 1.05 5.5, 1.34 5 C1.63 4.5, 1.97 4.02, 2.34 3.57 C2.71 3.13, 3.13 2.71, 3.57 2.34 C4.02 1.97, 4.5 1.63, 5 1.34 C5.5 1.05, 6.04 0.8, 6.58 0.6 C7.12 0.41, 7.69 0.25, 8.26 0.15 C8.83 0.05, 9.42 0, 10 0 C10.58 0, 11.17 0.05, 11.74 0.15 C12.31 0.25, 12.88 0.41, 13.42 0.6 C13.96 0.8, 14.5 1.05, 15 1.34 C15.5 1.63, 15.98 1.97, 16.43 2.34 C16.87 2.71, 17.29 3.13, 17.66 3.57 C18.03 4.02, 18.37 4.5, 18.66 5 C18.95 5.5, 19.2 6.04, 19.4 6.58 C19.59 7.12, 19.75 7.69, 19.85 8.26 C19.95 8.83, 19.97 9.71, 20 10 C20.03 10.29, 20.03 9.71, 20 10" stroke="none" stroke-width="0" fill="#1e1e1e"></path><path d="M20 10 C20 10.58, 19.95 11.17, 19.85 11.74 C19.75 12.31, 19.59 12.88, 19.4 13.42 C19.2 13.96, 18.95 14.5, 18.66 15 C18.37 15.5, 18.03 15.98, 17.66 16.43 C17.29 16.87, 16.87 17.29, 16.43 17.66 C15.98 18.03, 15.5 18.37, 15 18.66 C14.5 18.95, 13.96 19.2, 13.42 19.4 C12.88 19.59, 12.31 19.75, 11.74 19.85 C11.17 19.95, 10.58 20, 10 20 C9.42 20, 8.83 19.95, 8.26 19.85 C7.69 19.75, 7.12 19.59, 6.58 19.4 C6.04 19.2, 5.5 18.95, 5 18.66 C4.5 18.37, 4.02 18.03, 3.57 17.66 C3.13 17.29, 2.71 16.87, 2.34 16.43 C1.97 15.98, 1.63 15.5, 1.34 15 C1.05 14.5, 0.8 13.96, 0.6 13.42 C0.41 12.88, 0.25 12.31, 0.15 11.74 C0.05 11.17, 0 10.58, 0 10 C0 9.42, 0.05 8.83, 0.15 8.26 C0.25 7.69, 0.41 7.12, 0.6 6.58 C0.8 6.04, 1.05 5.5, 1.34 5 C1.63 4.5, 1.97 4.02, 2.34 3.57 C2.71 3.13, 3.13 2.71, 3.57 2.34 C4.02 1.97, 4.5 1.63, 5 1.34 C5.5 1.05, 6.04 0.8, 6.58 0.6 C7.12 0.41, 7.69 0.25, 8.26 0.15 C8.83 0.05, 9.42 0, 10 0 C10.58 0, 11.17 0.05, 11.74 0.15 C12.31 0.25, 12.88 0.41, 13.42 0.6 C13.96 0.8, 14.5 1.05, 15 1.34 C15.5 1.63, 15.98 1.97, 16.43 2.34 C16.87 2.71, 17.29 3.13, 17.66 3.57 C18.03 4.02, 18.37 4.5, 18.66 5 C18.95 5.5, 19.2 6.04, 19.4 6.58 C19.59 7.12, 19.75 7.69, 19.85 8.26 C19.95 8.83, 19.97 9.71, 20 10 C20.03 10.29, 20.03 9.71, 20 10" stroke="#1e1e1e" stroke-width="2" fill="none"></path></g></svg>